PathFileType	4	(X/Y/Z)	/Users/itak/Documents/Research/Walk-IL/dataset/trc/00344_00011.trc
DataRate	CameraRate	NumFrames	NumMarkers	Units	OrigDataRate	OrigDataStartFrame	OrigNumFrames
100.000000	100.000000	4	53	mm	100.000000	0	688
Frame#	Time	RPSI			LPSI			L3			STRN			T10			C7			CLAV			RBAK			LBAK			LSHO			LUPA			LAEL			LAOL			LWTS			LWPS			LFRA			LIFD			LHPS			LHTS			RSHO			RUPA			RAEL			RAOL			RWTS			RWPS			RFRA			RIFD			RHTS			RHPS			RBHD			LFHD			RFHD			LBHD			LHIP			RHIP			RASI			LASI			LKNE			LTHI			LANK			LTIP			LTOE			LMT1			LMT5			LHEE			RKNE			RTHI			RANK			RTIP			RTOE			RMT1			RMT5			RHEE			
		X1	Y1	Z1	X2	Y2	Z2	X3	Y3	Z3	X4	Y4	Z4	X5	Y5	Z5	X6	Y6	Z6	X7	Y7	Z7	X8	Y8	Z8	X9	Y9	Z9	X10	Y10	Z10	X11	Y11	Z11	X12	Y12	Z12	X13	Y13	Z13	X14	Y14	Z14	X15	Y15	Z15	X16	Y16	Z16	X17	Y17	Z17	X18	Y18	Z18	X19	Y19	Z19	X20	Y20	Z20	X21	Y21	Z21	X22	Y22	Z22	X23	Y23	Z23	X24	Y24	Z24	X25	Y25	Z25	X26	Y26	Z26	X27	Y27	Z27	X28	Y28	Z28	X29	Y29	Z29	X30	Y30	Z30	X31	Y31	Z31	X32	Y32	Z32	X33	Y33	Z33	X34	Y34	Z34	X35	Y35	Z35	X36	Y36	Z36	X37	Y37	Z37	X38	Y38	Z38	X39	Y39	Z39	X40	Y40	Z40	X41	Y41	Z41	X42	Y42	Z42	X43	Y43	Z43	X44	Y44	Z44	X45	Y45	Z45	X46	Y46	Z46	X47	Y47	Z47	X48	Y48	Z48	X49	Y49	Z49	X50	Y50	Z50	X51	Y51	Z51	X52	Y52	Z52	X53	Y53	Z53	

1	0	-28.32868766784668	982.1917114257812	1086.09130859375	-44.58134078979492	980.8953247070312	957.5068969726562	-36.95343780517578	1030.694458007812	1024.944091796875	173.5722198486328	1223.208740234375	984.7201538085938	-57.6151237487793	1149.899658203125	1012.987670898438	-28.6262149810791	1399.006469726562	990.9536743164062	128.2065887451172	1348.263671875	982.7611694335938	-63.96481704711914	1259.928955078125	1063.703857421875	-47.15322494506836	1360.067016601562	891.0357666015625	32.24852752685547	1380.674438476562	826.248779296875	14.84672260284424	1258.161376953125	762.294189453125	42.52104568481445	1053.9345703125	756.5303955078125	-18.88029289245605	1040.804443359375	814.242919921875	145.1813049316406	814.965576171875	809.5624389648438	107.0014343261719	801.8551025390625	753.203369140625	61.53378295898438	950.1743774414062	752.89990234375	152.2158203125	655.7264404296875	822.0446166992188	105.3590240478516	731.0883178710938	762.916748046875	159.0056915283203	736.7952880859375	795.4696655273438	42.72998809814453	1389.999267578125	1148.9765625	40.32390594482422	1323.818237304688	1212.578735351562	63.51560211181641	1055.6748046875	1245.067993164062	20.19638633728027	1047.157958984375	1160.894287109375	180.0284118652344	831.8740234375	1196.786865234375	147.1753997802734	816.3051147460938	1264.171264648438	91.9710693359375	989.771728515625	1252.334350585938	195.7419738769531	659.247802734375	1202.160888671875	211.497314453125	731.0927734375	1210.458129882812	163.9568939208984	731.6732788085938	1260.4052734375	7.638838768005371	1603.3837890625	1067.347290039062	171.5881195068359	1630.599487304688	941.3284912109375	166.4676513671875	1629.714599609375	1042.620971679688	-11.25024604797363	1597.311645507812	924.4440307617188	28.5718879699707	920.5994262695312	845.5253295898438	65.68286895751953	926.77783203125	1183.18603515625	161.6160583496094	954.0432739257812	1129.848999023438	156.1479797363281	945.3779296875	889.4391479492188	43.96834182739258	464.4640502929688	851.2352905273438	57.03855895996094	602.1427612304688	840.2018432617188	-32.74114227294922	47.50568771362305	863.318603515625	-0.4480965137481689	251.2068481445312	843.764892578125	177.3468933105469	42.33349609375	903.517822265625	112.2629852294922	30.42022323608398	950.0673217773438	91.26358032226562	45.0980224609375	838.649169921875	-60.14760971069336	43.52855682373047	932.754638671875	61.11676406860352	463.7045288085938	1165.667724609375	117.0044631958008	721.7836303710938	1189.60986328125	-28.90486335754395	26.45937728881836	1137.720092773438	59.86904144287109	347.3512268066406	1161.988159179688	180.1591796875	43.68202972412109	1093.680786132812	123.0054016113281	43.51052474975586	1054.863159179688	89.80278015136719	33.31283569335938	1168.802612304688	-62.43723297119141	54.04706192016602	1107.206787109375	
2	0.01	-28.35502052307129	982.2073364257812	1086.081909179688	-44.57492446899414	980.90380859375	957.4945068359375	-36.9614143371582	1030.697387695312	1024.93408203125	173.5577850341797	1223.184448242188	984.6952514648438	-57.65693283081055	1149.911987304688	1012.9833984375	-28.58104133605957	1399.03076171875	990.9539184570312	128.2003479003906	1348.251220703125	982.7537231445312	-63.92876052856445	1259.936401367188	1063.700805664062	-47.12627029418945	1360.091064453125	891.0130615234375	32.25913619995117	1380.670532226562	826.2268676757812	14.83166408538818	1258.156005859375	762.2901000976562	42.485595703125	1053.930297851562	756.5230102539062	-18.90926933288574	1040.8037109375	814.2477416992188	145.122802734375	814.9462280273438	809.5667114257812	106.9712295532227	801.8325805664062	753.2162475585938	61.49675369262695	950.157470703125	752.8970336914062	152.0996551513672	655.70361328125	822.1168823242188	105.2953720092773	731.0762939453125	762.923583984375	158.8877105712891	736.7534790039062	795.5349731445312	42.75625228881836	1390.0126953125	1148.962890625	40.3494873046875	1323.824951171875	1212.560546875	63.51628112792969	1055.697265625	1245.063842773438	20.17739105224609	1047.16943359375	1160.900756835938	179.9648742675781	831.8555908203125	1196.763427734375	147.1178436279297	816.3096313476562	1264.176635742188	91.96782684326172	989.7860717773438	1252.326538085938	195.6546173095703	659.2548217773438	1202.115112304688	211.395751953125	731.0883178710938	1210.480834960938	163.8904266357422	731.7120971679688	1260.4052734375	7.761110305786133	1603.410278320312	1067.301879882812	171.7275390625	1630.563354492188	941.2975463867188	166.5915985107422	1629.650268554688	1042.615966796875	-11.18890380859375	1597.351440429688	924.4301147460938	28.56784629821777	920.6077270507812	845.51904296875	65.65834045410156	926.7791748046875	1183.183227539062	161.5882415771484	954.0458374023438	1129.849243164062	156.1290893554688	945.37158203125	889.4486083984375	43.96682739257812	464.4649047851562	851.2383422851562	57.03891754150391	602.1436767578125	840.1995239257812	-32.7363166809082	47.50971984863281	863.3214111328125	-0.4442703723907471	251.2113647460938	843.764404296875	177.3507385253906	42.34074020385742	903.5170288085938	112.2714538574219	30.4265308380127	950.0719604492188	91.26113891601562	45.09680557250977	838.6407470703125	-60.16730499267578	43.53233337402344	932.7306518554688	61.11668014526367	463.7047119140625	1165.667724609375	116.9927368164062	721.7515258789062	1189.669921875	-28.91223526000977	26.46211814880371	1137.716796875	59.86983108520508	347.3471069335938	1161.98681640625	180.1611633300781	43.67742156982422	1093.680908203125	123.0069732666016	43.50191497802734	1054.862182617188	89.80385589599609	33.32101440429688	1168.783325195312	-62.43584442138672	54.0493049621582	1107.205444335938	
3	0.02	-28.38745498657227	982.2234497070312	1086.069213867188	-44.569580078125	980.9171752929688	957.4814453125	-36.96965026855469	1030.701782226562	1024.9228515625	173.5413360595703	1223.155029296875	984.6656494140625	-57.70172882080078	1149.924926757812	1012.975891113281	-28.52245330810547	1399.0634765625	990.9515991210938	128.1930847167969	1348.236328125	982.7448120117188	-63.88718414306641	1259.949462890625	1063.698120117188	-47.08469390869141	1360.1240234375	890.9788208007812	32.2730598449707	1380.664794921875	826.2011108398438	14.81630992889404	1258.149536132812	762.28369140625	42.4451904296875	1053.925170898438	756.5147705078125	-18.94192314147949	1040.80322265625	814.2537841796875	145.0498504638672	814.9197387695312	809.5731201171875	106.9331970214844	801.8060913085938	753.230712890625	61.45296859741211	950.1365966796875	752.8950805664062	151.9616241455078	655.6740112304688	822.1995239257812	105.217529296875	731.0599975585938	762.931396484375	158.7462768554688	736.699462890625	795.614501953125	42.78654098510742	1390.0283203125	1148.947509765625	40.38053512573242	1323.832153320312	1212.537475585938	63.51622772216797	1055.722412109375	1245.056884765625	20.15295600891113	1047.18408203125	1160.907104492188	179.8858947753906	831.8331298828125	1196.73779296875	147.0483245849609	816.3161010742188	1264.18115234375	91.96485137939453	989.80615234375	1252.315795898438	195.5496826171875	659.2667236328125	1202.061401367188	211.2891082763672	731.0722045898438	1210.5068359375	163.8099822998047	731.7606811523438	1260.41064453125	7.908278942108154	1603.439819335938	1067.248657226562	171.8907318115234	1630.517578125	941.26025390625	166.7431793212891	1629.576538085938	1042.602294921875	-11.11309909820557	1597.399047851562	924.4113159179688	28.56167793273926	920.6173095703125	845.5100708007812	65.63526916503906	926.7777709960938	1183.177001953125	161.5543670654297	954.0496826171875	1129.848510742188	156.1072540283203	945.3643188476562	889.457275390625	43.96524429321289	464.4649963378906	851.2415771484375	57.03803634643555	602.1448364257812	840.1957397460938	-32.7310791015625	47.5133056640625	863.322998046875	-0.4402008950710297	251.2161407470703	843.7616577148438	177.3537139892578	42.34670639038086	903.5162963867188	112.2813491821289	30.43282890319824	950.0776977539062	91.25850677490234	45.09535598754883	838.6322021484375	-60.18085479736328	43.5379638671875	932.71435546875	61.11726760864258	463.705810546875	1165.668334960938	116.9815368652344	721.7059326171875	1189.743530273438	-28.9177360534668	26.46755599975586	1137.7138671875	59.87272644042969	347.3417053222656	1161.985473632812	180.1636657714844	43.67193603515625	1093.681396484375	123.0088043212891	43.49238586425781	1054.862182617188	89.80500030517578	33.32769012451172	1168.767578125	-62.43331527709961	54.05301666259766	1107.203735351562	
4	0.03	-28.42512512207031	982.2382202148438	1086.053588867188	-44.56522750854492	980.9364624023438	957.468994140625	-36.9779052734375	1030.7080078125	1024.910766601562	173.5248565673828	1223.121948242188	984.6321411132812	-57.74596405029297	1149.9375	1012.964721679688	-28.45309257507324	1399.104125976562	990.9451904296875	128.1854553222656	1348.22021484375	982.735107421875	-63.84416198730469	1259.968627929688	1063.695678710938	-47.02900695800781	1360.1640625	890.9330444335938	32.29064178466797	1380.656616210938	826.1730346679688	14.8034725189209	1258.141845703125	762.2745971679688	42.40358734130859	1053.919311523438	756.5062866210938	-18.97550773620605	1040.803100585938	814.2603149414062	144.9659576416016	814.8866577148438	809.5818481445312	106.8890533447266	801.7775268554688	753.2454223632812	61.40505981445312	950.1131591796875	752.8944702148438	151.8110504150391	655.638671875	822.2854614257812	105.1295013427734	731.0394897460938	762.9400634765625	158.5899963378906	736.6350708007812	795.7031860351562	42.81866073608398	1390.044799804688	1148.931884765625	40.41519927978516	1323.839111328125	1212.510498046875	63.5147705078125	1055.748413085938	1245.046997070312	20.12442970275879	1047.201049804688	1160.912475585938	179.7944641113281	831.80712890625	1196.712768554688	146.9709167480469	816.3244018554688	1264.183837890625	91.96294403076172	989.8316040039062	1252.301879882812	195.4337463378906	659.2846069335938	1202.00341796875	211.1849517822266	731.0437622070312	1210.53271484375	163.7209625244141	731.81640625	1260.42333984375	8.071349143981934	1603.469848632812	1067.191284179688	172.0653533935547	1630.46435546875	941.2191162109375	166.9129943847656	1629.500732421875	1042.578002929688	-11.02546119689941	1597.451049804688	924.38671875	28.55354881286621	920.6268920898438	845.4985961914062	65.61573028564453	926.7734985351562	1183.167846679688	161.5157012939453	954.0540161132812	1129.84619140625	156.0847625732422	945.3568725585938	889.4638671875	43.96350860595703	464.464111328125	851.2449951171875	57.03510284423828	602.1461791992188	840.1906127929688	-32.72614669799805	47.5157356262207	863.3228149414062	-0.4364742934703827	251.2203826904297	843.7567138671875	177.3552703857422	42.35075759887695	903.5159912109375	112.291633605957	30.43850517272949	950.0838012695312	91.25632476806641	45.09408950805664	838.6240844726562	-60.18582916259766	43.54486083984375	932.7085571289062	61.11898422241211	463.7084045410156	1165.669799804688	116.9760818481445	721.6466674804688	1189.824096679688	-28.91973114013672	26.47564125061035	1137.71240234375	59.87843322753906	347.3348083496094	1161.983642578125	180.1668090820312	43.66581726074219	1093.682006835938	123.0108108520508	43.4826774597168	1054.863525390625	89.80670166015625	33.33229064941406	1168.756225585938	-62.42966461181641	54.05831146240234	1107.20166015625	
